HIERARCHY
ROOT Hips
{
	OFFSET 0.000000 0.000000 0.000000
	CHANNELS 6 Xposition Yposition Zposition Zrotation Yrotation Xrotation 
	JOINT LHipJoint
	{
		OFFSET 0.000000 0.000000 0.000000
		CHANNELS 3 Zrotation Yrotation Xrotation
		JOINT LeftUpLeg
		{
			OFFSET 1.363060 -1.794630 0.839290
			CHANNELS 3 Zrotation Yrotation Xrotation
			JOINT LeftLeg
			{
				OFFSET 2.448110 -6.726130 0.000000
				CHANNELS 3 Zrotation Yrotation Xrotation
				JOINT LeftFoot
				{
					OFFSET 2.562200 -7.039590 0.000000
					CHANNELS 3 Zrotation Yrotation Xrotation
					JOINT LeftToeBase
					{
						OFFSET 0.157640 -0.433110 2.322550
						CHANNELS 3 Zrotation Yrotation Xrotation
						End Site
						{
							OFFSET 0.000000 0.000000 0.000000
						}
					}
				}
			}
		}
	}
	JOINT RHipJoint
	{
		OFFSET 0.000000 0.000000 0.000000
		CHANNELS 3 Zrotation Yrotation Xrotation
		JOINT RightUpLeg
		{
			OFFSET -1.305520 -1.794630 0.839290
			CHANNELS 3 Zrotation Yrotation Xrotation
			JOINT RightLeg
			{
				OFFSET -2.542530 -6.985550 0.000000
				CHANNELS 3 Zrotation Yrotation Xrotation
				JOINT RightFoot
				{
					OFFSET -2.568260 -7.056230 0.000000
					CHANNELS 3 Zrotation Yrotation Xrotation
					JOINT RightToeBase
					{
						OFFSET -0.164730 -0.452590 2.363150
						CHANNELS 3 Zrotation Yrotation Xrotation
						End Site
						{
							OFFSET 0.000000 0.000000 0.000000
						}
					}
				}
			}
		}
	}
}
MOTION
Frames: 22
Frame Time: 0.008333
2.233107 17.470844 0.388441 179.362667 -51.706983 -173.506409 -12.624017 5.089182 -1.170108 -4.856998 34.769592 -5.294094 -2.557666 -0.415447 0.789545 2.096264 17.805752 4.637208 3.699600 0.000000 -47.165500 8.990183 -2.346282 5.890737 -0.386848 9.321818 -9.026995 2.681108 1.171623 0.343061 1.225646 5.984863 8.324863 0.876600 0.000000 -74.097600
2.233262 17.466725 0.396214 179.428125 -51.211563 -173.290344 -12.653758 5.065603 -1.192735 -5.000519 34.944657 -5.513472 -2.589992 -0.438750 0.692143 2.087707 17.748012 4.548551 3.661800 0.000000 -47.184500 8.953089 -2.346270 5.981046 -0.450517 9.504813 -9.396339 2.725642 1.200910 0.070689 1.272944 6.325346 8.511648 0.979800 0.000000 -74.277200
2.235179 17.461460 0.402953 179.503359 -50.685136 -173.081249 -12.679447 5.028550 -1.219886 -5.128451 35.089711 -5.735799 -2.615476 -0.460334 0.657317 2.086029 17.733641 4.423726 3.623900 -0.000000 -47.226300 8.912889 -2.347405 6.082941 -0.511241 9.764966 -9.806063 2.765460 1.220700 -0.130032 1.315686 6.651259 8.660597 1.079400 0.000000 -74.443600
2.238989 17.455424 0.409049 179.583343 -50.156783 -172.879353 -12.699878 4.979356 -1.250686 -5.246068 35.205434 -5.965063 -2.635216 -0.480212 0.682733 2.090210 17.754724 4.264746 3.584300 0.000000 -47.267600 8.872701 -2.348685 6.186571 -0.565976 10.054482 -10.258928 2.799467 1.229204 -0.236765 1.355249 6.978761 8.766139 1.179200 -0.000000 -74.585000
2.244681 17.449008 0.414945 179.667364 -49.656376 -172.689342 -12.714846 4.919305 -1.284143 -5.352948 35.282194 -6.196533 -2.648664 -0.498327 0.755540 2.100346 17.809869 4.076503 3.544000 -0.000001 -47.295100 8.833552 -2.349079 6.284622 -0.610253 10.351991 -10.731495 2.827487 1.228044 -0.267609 1.390371 7.290566 8.838827 1.274200 0.000000 -74.699300
2.252218 17.442486 0.421214 179.754452 -49.210778 -172.517699 -12.724932 4.850449 -1.320416 -5.446008 35.315172 -6.421487 -2.655753 -0.514351 0.862024 2.115749 17.892180 3.864387 3.502500 -0.000000 -47.295800 8.796024 -2.347437 6.370589 -0.641484 10.644124 -11.193966 2.849439 1.219576 -0.246325 1.419247 7.562882 8.888941 1.358100 -0.000000 -74.782800
2.261132 17.436092 0.428187 179.842251 -48.838130 -172.363317 -12.731702 4.776114 -1.356929 -5.529258 35.302276 -6.637583 -2.657195 -0.528648 0.986212 2.135646 17.995183 3.634119 3.459900 -0.000001 -47.259300 8.760419 -2.343020 6.439371 -0.658641 10.908642 -11.635290 2.865754 1.205519 -0.179382 1.441911 7.790945 8.919412 1.428900 0.000000 -74.831200
2.271262 17.430008 0.436102 179.923344 -48.550624 -172.224147 -12.736599 4.699765 -1.391256 -5.607028 35.242389 -6.841477 -2.653730 -0.541451 1.111300 2.159228 18.113013 3.393418 3.416799 -0.000000 -47.183700 8.726867 -2.334968 6.488064 -0.663175 11.132921 -12.043710 2.876769 1.187941 -0.078026 1.458137 7.966835 8.933722 1.484000 -0.000000 -74.845600
2.282260 17.424367 0.445078 179.994181 -48.355132 -172.097090 -12.740512 4.624323 -1.421643 -5.683430 35.134622 -7.029256 -2.646143 -0.553144 1.221580 2.185659 18.239746 3.148182 3.373600 -0.000000 -47.059000 8.695704 -2.322604 6.515741 -0.658815 11.313678 -12.411305 2.882466 1.168535 0.048689 1.467309 8.080428 8.933135 1.520300 -0.000001 -74.819500
2.293703 17.419325 0.455039 -179.947416 -48.250139 -171.976152 -12.744519 4.552766 -1.444861 -5.765271 34.980443 -7.203182 -2.635461 -0.564345 1.302942 2.214208 18.371443 2.906640 3.332099 0.000000 -46.890300 8.666565 -2.306221 6.525201 -0.649961 11.452755 -12.738569 2.883394 1.149251 0.189535 1.469466 8.126597 8.922432 1.536500 -0.000000 -74.760800
2.305598 17.414845 0.465925 -179.904725 -48.231462 -171.858238 -12.747803 4.486442 -1.462321 -5.854190 34.785929 -7.358377 -2.622843 -0.575272 1.346077 2.243463 18.500090 2.674471 3.292400 -0.000000 -46.675000 8.640967 -2.285065 6.517317 -0.642263 11.555614 -13.025415 2.878905 1.130283 0.343435 1.464251 8.102817 8.898446 1.531300 0.000000 -74.663900
2.317767 17.410942 0.477513 -179.878277 -48.288983 -171.738703 -12.749959 4.426412 -1.474492 -5.952718 34.560351 -7.496294 -2.609762 -0.586286 1.345998 2.271936 18.617722 2.456726 3.254500 -0.000000 -46.420500 8.619387 -2.259440 6.496221 -0.640735 11.632725 -13.278600 2.868950 1.112082 0.507158 1.451735 8.009533 8.861255 1.505100 0.000000 -74.534000
2.330210 17.407494 0.489624 -179.868654 -48.410282 -171.613324 -12.749992 4.372742 -1.483113 -6.062139 34.313014 -7.616953 -2.597396 -0.597741 1.300645 2.298253 18.717727 2.257550 3.218500 -0.000001 -46.133800 8.602820 -2.229551 6.465333 -0.650665 11.694283 -13.508286 2.853017 1.093971 0.685974 1.432131 7.852222 8.806757 1.459100 0.000001 -74.371200
2.342874 17.404393 0.501974 -179.872346 -48.579903 -171.481183 -12.747843 4.324956 -1.491121 -6.179111 34.062209 -7.725910 -2.587831 -0.609348 1.218413 2.320072 18.786288 2.077283 3.181600 0.000001 -45.831200 8.590643 -2.196504 6.430561 -0.674711 11.759151 -13.720206 2.831385 1.076309 0.873639 1.405300 7.630371 8.736963 1.393701 0.000000 -74.187999
2.355879 17.401477 0.514375 -179.889284 -48.783219 -171.340609 -12.743024 4.282107 -1.501416 -6.301475 33.821588 -7.826202 -2.582428 -0.620978 1.107818 2.335784 18.814928 1.915544 3.142300 0.000000 -45.524800 8.582985 -2.160915 6.395186 -0.714726 11.836449 -13.924764 2.804044 1.058192 1.076025 1.371888 7.354601 8.648952 1.312000 0.000000 -73.991600
2.369345 17.398519 0.526604 -179.919430 -49.006953 -171.188588 -12.734602 4.242601 -1.516034 -6.429369 33.593827 -7.917092 -2.580997 -0.632998 0.973201 2.345513 18.806776 1.772402 3.101400 0.000000 -45.223100 8.580344 -2.123039 6.361035 -0.773522 11.933466 -14.136203 2.770345 1.037714 1.309547 1.332372 7.037165 8.533006 1.217200 -0.000000 -73.774800
2.383234 17.395450 0.538501 -179.956271 -49.238735 -171.028813 -12.723730 4.205195 -1.537995 -6.555451 33.398594 -8.009788 -2.585613 -0.644256 0.836648 2.347064 18.747069 1.641601 3.053800 0.000000 -44.944000 8.580627 -2.084518 6.332612 -0.847972 12.062943 -14.353933 2.731623 1.015845 1.561286 1.286989 6.679526 8.397670 1.110900 0.000000 -73.560800
2.397778 17.392104 0.549944 179.997903 -49.471258 -170.858720 -12.709179 4.168120 -1.566974 -6.681730 33.223555 -8.099542 -2.594087 -0.655427 0.697960 2.342857 18.653423 1.523169 3.003700 0.000000 -44.687800 8.584732 -2.045017 6.308659 -0.938963 12.222074 -14.591221 2.687112 0.990173 1.852837 1.236505 6.297346 8.232607 0.997400 -0.000000 -73.335200
2.412914 17.388495 0.560843 179.949085 -49.699053 -170.683809 -12.692039 4.130436 -1.604185 -6.801861 33.079886 -8.197007 -2.607563 -0.665183 0.579228 2.331845 18.517244 1.409473 2.946499 -0.000000 -44.467200 8.590796 -2.005687 6.290968 -1.040776 12.412493 -14.841962 2.638654 0.962217 2.167202 1.181571 5.894175 8.048314 0.878800 -0.000000 -73.122800
2.428928 17.384635 0.571183 179.894548 -49.921994 -170.503948 -12.671150 4.090799 -1.647814 -6.917154 32.949069 -8.296818 -2.623161 -0.673909 0.479064 2.317266 18.360245 1.300409 2.887100 0.000001 -44.276299 8.599720 -1.965828 6.276504 -1.151783 12.625670 -15.110711 2.585899 0.930413 2.516947 1.122877 5.481143 7.841141 0.758500 -0.000000 -72.911300
2.445722 17.380572 0.580973 179.837758 -50.141896 -170.322563 -12.646553 4.048676 -1.696315 -7.026305 32.822331 -8.399246 -2.639467 -0.681283 0.403506 2.300791 18.192282 1.192825 2.826500 0.000001 -44.112400 8.611225 -1.925472 6.263244 -1.267563 12.853009 -15.392670 2.529762 0.895105 2.897599 1.061114 5.064114 7.615341 0.638900 0.000001 -72.703300
2.463179 17.376467 0.590191 179.781763 -50.363496 -170.143985 -12.618654 4.004127 -1.747522 -7.126901 32.695106 -8.509002 -2.655861 -0.686533 0.361696 2.283248 18.017067 1.083329 2.764300 -0.000001 -43.977000 8.624889 -1.884783 6.249040 -1.381739 13.080445 -15.676959 2.472176 0.858026 3.291490 0.997624 4.650027 7.382187 0.522400 -0.000000 -72.514600
